# xmcd
#
# Track frame offsets:
#	150
#	21231
#	41240
#	63878
#	78824
#	92699
#	109913
#	125419
#	141737
#	156862
#	169963
#	188828
#	212457
#	234358
#
# Disc length: 3479 seconds
#
# Revision: 0
# Processed by: cddbd v1.5.2PL0 Copyright (c) Steve Scherf et al.
# Submitted via: dBpowerAMP V4.0
#
DISCID=be0d950e
DTITLE=E vai rolar a festa [CD03) - E vai rolar a festa
DYEAR=2005
DGENRE=Festa
TTITLE0=Pista de audio 01
TTITLE1=Pista de audio 02
TTITLE2=Pista de audio 03
TTITLE3=Pista de audio 04
TTITLE4=Pista de audio 05
TTITLE5=Pista de audio 06
TTITLE6=Pista de audio 07
TTITLE7=Pista de audio 08
TTITLE8=Pista de audio 09
TTITLE9=Pista de audio 10
TTITLE10=Pista de audio 11
TTITLE11=Pista de audio 12
TTITLE12=Pista de audio 13
TTITLE13=Pista de audio 14
EXTD=
EXTT0=
EXTT1=
EXTT2=
EXTT3=
EXTT4=
EXTT5=
EXTT6=
EXTT7=
EXTT8=
EXTT9=
EXTT10=
EXTT11=
EXTT12=
EXTT13=
PLAYORDER=
